<?xml version="1.0" encoding="UTF-8" standalone="no"?>
<!DOCTYPE svg PUBLIC "-//W3C//DTD SVG 1.1//EN"
 "http://www.w3.org/Graphics/SVG/1.1/DTD/svg11.dtd">
<!-- Generated by graphviz version 2.38.0 (20140413.2041)
 -->
<!-- Title: output Pages: 1 -->
<svg width="595pt" height="1099pt"
 viewBox="0.00 0.00 595.00 1099.00" xmlns="http://www.w3.org/2000/svg" xmlns:xlink="http://www.w3.org/1999/xlink">
<g id="graph0" class="graph" transform="scale(1 1) rotate(0) translate(4 1095)">
<title>output</title>
<polygon fill="white" stroke="none" points="-4,4 -4,-1095 591,-1095 591,4 -4,4"/>
<!-- Legend -->
<g id="node1" class="node"><title>Legend</title>
<polygon fill="#e0e0e0" stroke="none" points="8.5,-1036.5 8.5,-1059.5 209.5,-1059.5 209.5,-1036.5 8.5,-1036.5"/>
<polygon fill="none" stroke="black" points="8.5,-1036.5 8.5,-1059.5 209.5,-1059.5 209.5,-1036.5 8.5,-1036.5"/>
<text text-anchor="start" x="93" y="-1044.3" font-family="Times,serif" font-size="14.00">Layer</text>
<polygon fill="#88ffff" stroke="none" points="8.5,-998.5 8.5,-1036.5 89.5,-1036.5 89.5,-998.5 8.5,-998.5"/>
<polygon fill="none" stroke="black" points="8.5,-998.5 8.5,-1036.5 89.5,-1036.5 89.5,-998.5 8.5,-998.5"/>
<text text-anchor="start" x="12.5" y="-1021.3" font-family="Times,serif" font-size="14.00"> Complexity </text>
<text text-anchor="start" x="15" y="-1006.3" font-family="Times,serif" font-size="14.00"> (MFLOPs) </text>
<polygon fill="#ff88ff" stroke="none" points="89.5,-998.5 89.5,-1036.5 164.5,-1036.5 164.5,-998.5 89.5,-998.5"/>
<polygon fill="none" stroke="black" points="89.5,-998.5 89.5,-1036.5 164.5,-1036.5 164.5,-998.5 89.5,-998.5"/>
<text text-anchor="start" x="93.5" y="-1021.3" font-family="Times,serif" font-size="14.00"> Bandwidth </text>
<text text-anchor="start" x="103" y="-1006.3" font-family="Times,serif" font-size="14.00"> (MB/s) </text>
<polygon fill="#ffff88" stroke="none" points="164.5,-998.5 164.5,-1036.5 209.5,-1036.5 209.5,-998.5 164.5,-998.5"/>
<polygon fill="none" stroke="black" points="164.5,-998.5 164.5,-1036.5 209.5,-1036.5 209.5,-998.5 164.5,-998.5"/>
<text text-anchor="start" x="168.5" y="-1021.3" font-family="Times,serif" font-size="14.00"> Time </text>
<text text-anchor="start" x="172" y="-1006.3" font-family="Times,serif" font-size="14.00"> (ms)</text>
</g>
<!-- Input -->
<g id="node2" class="node"><title>Input</title>
<ellipse fill="none" stroke="black" cx="301.5" cy="-1029.5" rx="66.0889" ry="18"/>
<text text-anchor="middle" x="301.5" y="-1025.8" font-family="Times,serif" font-size="14.00">input: (1, 2304)</text>
</g>
<!-- conv1/Relu -->
<g id="node3" class="node"><title>conv1/Relu</title>
<polygon fill="#a3a3a3" stroke="none" points="215.5,-905 215.5,-928 387.5,-928 387.5,-905 215.5,-905"/>
<polygon fill="none" stroke="black" points="215.5,-905 215.5,-928 387.5,-928 387.5,-905 215.5,-905"/>
<text text-anchor="start" x="270" y="-912.8" font-family="Times,serif" font-size="14.00">conv1/Relu</text>
<polygon fill="#dddddd" stroke="none" points="215.5,-882 215.5,-905 387.5,-905 387.5,-882 215.5,-882"/>
<polygon fill="none" stroke="black" points="215.5,-882 215.5,-905 387.5,-905 387.5,-882 215.5,-882"/>
<text text-anchor="start" x="269" y="-889.8" font-family="Times,serif" font-size="14.00">(32, 48, 48)</text>
<polygon fill="#a8efec" stroke="none" points="215.5,-844 215.5,-882 291.5,-882 291.5,-844 215.5,-844"/>
<polygon fill="none" stroke="black" points="215.5,-844 215.5,-882 291.5,-882 291.5,-844 215.5,-844"/>
<text text-anchor="start" x="230.5" y="-866.8" font-family="Times,serif" font-size="14.00"> 3.6864 </text>
<text text-anchor="start" x="219.5" y="-851.8" font-family="Times,serif" font-size="14.00"> (MFLOPs) </text>
<polygon fill="#fbdcf8" stroke="none" points="291.5,-844 291.5,-882 347.5,-882 347.5,-844 291.5,-844"/>
<polygon fill="none" stroke="black" points="291.5,-844 291.5,-882 347.5,-882 347.5,-844 291.5,-844"/>
<text text-anchor="start" x="300" y="-866.8" font-family="Times,serif" font-size="14.00"> 85.69 </text>
<text text-anchor="start" x="295.5" y="-851.8" font-family="Times,serif" font-size="14.00"> (MB/s) </text>
<polygon fill="#ffffb0" stroke="none" points="347.5,-844 347.5,-882 387.5,-882 387.5,-844 347.5,-844"/>
<polygon fill="none" stroke="black" points="347.5,-844 347.5,-882 387.5,-882 387.5,-844 347.5,-844"/>
<text text-anchor="start" x="351.5" y="-866.8" font-family="Times,serif" font-size="14.00"> 1.32 </text>
<text text-anchor="start" x="352.5" y="-851.8" font-family="Times,serif" font-size="14.00"> (ms)</text>
</g>
<!-- Input&#45;&gt;conv1/Relu -->
<g id="edge1" class="edge"><title>Input&#45;&gt;conv1/Relu</title>
<path fill="none" stroke="black" d="M301.5,-1011.43C301.5,-994.247 301.5,-966.812 301.5,-942.07"/>
<polygon fill="black" stroke="black" points="305,-942.031 301.5,-932.031 298,-942.031 305,-942.031"/>
</g>
<!-- pool1/MaxPool -->
<g id="node4" class="node"><title>pool1/MaxPool</title>
<polygon fill="#a3a3a3" stroke="none" points="215.5,-777 215.5,-800 387.5,-800 387.5,-777 215.5,-777"/>
<polygon fill="none" stroke="black" points="215.5,-777 215.5,-800 387.5,-800 387.5,-777 215.5,-777"/>
<text text-anchor="start" x="259" y="-784.8" font-family="Times,serif" font-size="14.00">pool1/MaxPool</text>
<polygon fill="#dddddd" stroke="none" points="215.5,-754 215.5,-777 387.5,-777 387.5,-754 215.5,-754"/>
<polygon fill="none" stroke="black" points="215.5,-754 215.5,-777 387.5,-777 387.5,-754 215.5,-754"/>
<text text-anchor="start" x="269" y="-761.8" font-family="Times,serif" font-size="14.00">(32, 24, 24)</text>
<polygon fill="#b0f0ee" stroke="none" points="215.5,-716 215.5,-754 291.5,-754 291.5,-716 215.5,-716"/>
<polygon fill="none" stroke="black" points="215.5,-716 215.5,-754 291.5,-754 291.5,-716 215.5,-716"/>
<text text-anchor="start" x="224" y="-738.8" font-family="Times,serif" font-size="14.00"> 0.073728 </text>
<text text-anchor="start" x="219.5" y="-723.8" font-family="Times,serif" font-size="14.00"> (MFLOPs) </text>
<polygon fill="#f0beea" stroke="none" points="291.5,-716 291.5,-754 347.5,-754 347.5,-716 291.5,-716"/>
<polygon fill="none" stroke="black" points="291.5,-716 291.5,-754 347.5,-754 347.5,-716 291.5,-716"/>
<text text-anchor="start" x="296.5" y="-738.8" font-family="Times,serif" font-size="14.00"> 411.12 </text>
<text text-anchor="start" x="295.5" y="-723.8" font-family="Times,serif" font-size="14.00"> (MB/s) </text>
<polygon fill="#ffffc5" stroke="none" points="347.5,-716 347.5,-754 387.5,-754 387.5,-716 347.5,-716"/>
<polygon fill="none" stroke="black" points="347.5,-716 347.5,-754 387.5,-754 387.5,-716 347.5,-716"/>
<text text-anchor="start" x="351.5" y="-738.8" font-family="Times,serif" font-size="14.00"> 0.34 </text>
<text text-anchor="start" x="352.5" y="-723.8" font-family="Times,serif" font-size="14.00"> (ms)</text>
</g>
<!-- conv1/Relu&#45;&gt;pool1/MaxPool -->
<g id="edge2" class="edge"><title>conv1/Relu&#45;&gt;pool1/MaxPool</title>
<path fill="none" stroke="black" d="M301.5,-839.867C301.5,-831.634 301.5,-822.957 301.5,-814.465"/>
<polygon fill="black" stroke="black" points="305,-814.241 301.5,-804.241 298,-814.241 305,-814.241"/>
</g>
<!-- conv2/Relu -->
<g id="node5" class="node"><title>conv2/Relu</title>
<polygon fill="#a3a3a3" stroke="none" points="215.5,-649 215.5,-672 387.5,-672 387.5,-649 215.5,-649"/>
<polygon fill="none" stroke="black" points="215.5,-649 215.5,-672 387.5,-672 387.5,-649 215.5,-649"/>
<text text-anchor="start" x="270" y="-656.8" font-family="Times,serif" font-size="14.00">conv2/Relu</text>
<polygon fill="#dddddd" stroke="none" points="215.5,-626 215.5,-649 387.5,-649 387.5,-626 215.5,-626"/>
<polygon fill="none" stroke="black" points="215.5,-626 215.5,-649 387.5,-649 387.5,-626 215.5,-626"/>
<text text-anchor="start" x="269" y="-633.8" font-family="Times,serif" font-size="14.00">(64, 24, 24)</text>
<polygon fill="#2ed1c6" stroke="none" points="215.5,-588 215.5,-626 291.5,-626 291.5,-588 215.5,-588"/>
<polygon fill="none" stroke="black" points="215.5,-588 215.5,-626 291.5,-626 291.5,-588 215.5,-588"/>
<text text-anchor="start" x="227.5" y="-610.8" font-family="Times,serif" font-size="14.00"> 58.9824 </text>
<text text-anchor="start" x="219.5" y="-595.8" font-family="Times,serif" font-size="14.00"> (MFLOPs) </text>
<polygon fill="#fbdbf7" stroke="none" points="291.5,-588 291.5,-626 347.5,-626 347.5,-588 291.5,-588"/>
<polygon fill="none" stroke="black" points="291.5,-588 291.5,-626 347.5,-626 347.5,-588 291.5,-588"/>
<text text-anchor="start" x="296.5" y="-610.8" font-family="Times,serif" font-size="14.00"> 103.39 </text>
<text text-anchor="start" x="295.5" y="-595.8" font-family="Times,serif" font-size="14.00"> (MB/s) </text>
<polygon fill="#ffff00" stroke="none" points="347.5,-588 347.5,-626 387.5,-626 387.5,-588 347.5,-588"/>
<polygon fill="none" stroke="black" points="347.5,-588 347.5,-626 387.5,-626 387.5,-588 347.5,-588"/>
<text text-anchor="start" x="351.5" y="-610.8" font-family="Times,serif" font-size="14.00"> 9.47 </text>
<text text-anchor="start" x="352.5" y="-595.8" font-family="Times,serif" font-size="14.00"> (ms)</text>
</g>
<!-- pool1/MaxPool&#45;&gt;conv2/Relu -->
<g id="edge3" class="edge"><title>pool1/MaxPool&#45;&gt;conv2/Relu</title>
<path fill="none" stroke="black" d="M301.5,-711.867C301.5,-703.634 301.5,-694.957 301.5,-686.465"/>
<polygon fill="black" stroke="black" points="305,-686.241 301.5,-676.241 298,-686.241 305,-686.241"/>
</g>
<!-- pool2/MaxPool -->
<g id="node6" class="node"><title>pool2/MaxPool</title>
<polygon fill="#a3a3a3" stroke="none" points="215.5,-521 215.5,-544 387.5,-544 387.5,-521 215.5,-521"/>
<polygon fill="none" stroke="black" points="215.5,-521 215.5,-544 387.5,-544 387.5,-521 215.5,-521"/>
<text text-anchor="start" x="259" y="-528.8" font-family="Times,serif" font-size="14.00">pool2/MaxPool</text>
<polygon fill="#dddddd" stroke="none" points="215.5,-498 215.5,-521 387.5,-521 387.5,-498 215.5,-498"/>
<polygon fill="none" stroke="black" points="215.5,-498 215.5,-521 387.5,-521 387.5,-498 215.5,-498"/>
<text text-anchor="start" x="269" y="-505.8" font-family="Times,serif" font-size="14.00">(64, 12, 12)</text>
<polygon fill="#b0f0ee" stroke="none" points="215.5,-460 215.5,-498 291.5,-498 291.5,-460 215.5,-460"/>
<polygon fill="none" stroke="black" points="215.5,-460 215.5,-498 291.5,-498 291.5,-460 215.5,-460"/>
<text text-anchor="start" x="224" y="-482.8" font-family="Times,serif" font-size="14.00"> 0.036864 </text>
<text text-anchor="start" x="219.5" y="-467.8" font-family="Times,serif" font-size="14.00"> (MFLOPs) </text>
<polygon fill="#f1c1eb" stroke="none" points="291.5,-460 291.5,-498 347.5,-498 347.5,-460 291.5,-460"/>
<polygon fill="none" stroke="black" points="291.5,-460 291.5,-498 347.5,-498 347.5,-460 291.5,-460"/>
<text text-anchor="start" x="296.5" y="-482.8" font-family="Times,serif" font-size="14.00"> 376.06 </text>
<text text-anchor="start" x="295.5" y="-467.8" font-family="Times,serif" font-size="14.00"> (MB/s) </text>
<polygon fill="#ffffc8" stroke="none" points="347.5,-460 347.5,-498 387.5,-498 387.5,-460 347.5,-460"/>
<polygon fill="none" stroke="black" points="347.5,-460 347.5,-498 387.5,-498 387.5,-460 347.5,-460"/>
<text text-anchor="start" x="351.5" y="-482.8" font-family="Times,serif" font-size="14.00"> 0.19 </text>
<text text-anchor="start" x="352.5" y="-467.8" font-family="Times,serif" font-size="14.00"> (ms)</text>
</g>
<!-- conv2/Relu&#45;&gt;pool2/MaxPool -->
<g id="edge4" class="edge"><title>conv2/Relu&#45;&gt;pool2/MaxPool</title>
<path fill="none" stroke="black" d="M301.5,-583.867C301.5,-575.634 301.5,-566.957 301.5,-558.465"/>
<polygon fill="black" stroke="black" points="305,-558.241 301.5,-548.241 298,-558.241 305,-558.241"/>
</g>
<!-- fc1/Relu -->
<g id="node7" class="node"><title>fc1/Relu</title>
<polygon fill="#a3a3a3" stroke="none" points="213.5,-393 213.5,-416 389.5,-416 389.5,-393 213.5,-393"/>
<polygon fill="none" stroke="black" points="213.5,-393 213.5,-416 389.5,-416 389.5,-393 213.5,-393"/>
<text text-anchor="start" x="278" y="-400.8" font-family="Times,serif" font-size="14.00">fc1/Relu</text>
<polygon fill="#dddddd" stroke="none" points="213.5,-370 213.5,-393 389.5,-393 389.5,-370 213.5,-370"/>
<polygon fill="none" stroke="black" points="213.5,-370 213.5,-393 389.5,-393 389.5,-370 213.5,-370"/>
<text text-anchor="start" x="269" y="-377.8" font-family="Times,serif" font-size="14.00">(1024, 1, 1)</text>
<polygon fill="#87e6e1" stroke="none" points="213.5,-332 213.5,-370 289.5,-370 289.5,-332 213.5,-332"/>
<polygon fill="none" stroke="black" points="213.5,-332 213.5,-370 289.5,-370 289.5,-332 213.5,-332"/>
<text text-anchor="start" x="218.5" y="-354.8" font-family="Times,serif" font-size="14.00"> 18.874368 </text>
<text text-anchor="start" x="217.5" y="-339.8" font-family="Times,serif" font-size="14.00"> (MFLOPs) </text>
<polygon fill="#b2189e" stroke="none" points="289.5,-332 289.5,-370 349.5,-370 349.5,-332 289.5,-332"/>
<polygon fill="none" stroke="black" points="289.5,-332 289.5,-370 349.5,-370 349.5,-332 289.5,-332"/>
<text text-anchor="start" x="293.5" y="-354.8" font-family="Times,serif" font-size="14.00"> 2161.47 </text>
<text text-anchor="start" x="295.5" y="-339.8" font-family="Times,serif" font-size="14.00"> (MB/s) </text>
<polygon fill="#ffff18" stroke="none" points="349.5,-332 349.5,-370 389.5,-370 389.5,-332 349.5,-332"/>
<polygon fill="none" stroke="black" points="349.5,-332 349.5,-370 389.5,-370 389.5,-332 349.5,-332"/>
<text text-anchor="start" x="353.5" y="-354.8" font-family="Times,serif" font-size="14.00"> 8.34 </text>
<text text-anchor="start" x="354.5" y="-339.8" font-family="Times,serif" font-size="14.00"> (ms)</text>
</g>
<!-- pool2/MaxPool&#45;&gt;fc1/Relu -->
<g id="edge5" class="edge"><title>pool2/MaxPool&#45;&gt;fc1/Relu</title>
<path fill="none" stroke="black" d="M301.5,-455.867C301.5,-447.634 301.5,-438.957 301.5,-430.465"/>
<polygon fill="black" stroke="black" points="305,-430.241 301.5,-420.241 298,-430.241 305,-430.241"/>
</g>
<!-- fc2/add -->
<g id="node8" class="node"><title>fc2/add</title>
<polygon fill="#a3a3a3" stroke="none" points="215.5,-265 215.5,-288 387.5,-288 387.5,-265 215.5,-265"/>
<polygon fill="none" stroke="black" points="215.5,-265 215.5,-288 387.5,-288 387.5,-265 215.5,-265"/>
<text text-anchor="start" x="281" y="-272.8" font-family="Times,serif" font-size="14.00">fc2/add</text>
<polygon fill="#dddddd" stroke="none" points="215.5,-242 215.5,-265 387.5,-265 387.5,-242 215.5,-242"/>
<polygon fill="none" stroke="black" points="215.5,-242 215.5,-265 387.5,-265 387.5,-242 215.5,-242"/>
<text text-anchor="start" x="279" y="-249.8" font-family="Times,serif" font-size="14.00">(7, 1, 1)</text>
<polygon fill="#b0f0ee" stroke="none" points="215.5,-204 215.5,-242 291.5,-242 291.5,-204 215.5,-204"/>
<polygon fill="none" stroke="black" points="215.5,-204 215.5,-242 291.5,-242 291.5,-204 215.5,-204"/>
<text text-anchor="start" x="224" y="-226.8" font-family="Times,serif" font-size="14.00"> 0.014336 </text>
<text text-anchor="start" x="219.5" y="-211.8" font-family="Times,serif" font-size="14.00"> (MFLOPs) </text>
<polygon fill="#f2c4ed" stroke="none" points="291.5,-204 291.5,-242 347.5,-242 347.5,-204 291.5,-204"/>
<polygon fill="none" stroke="black" points="291.5,-204 291.5,-242 347.5,-242 347.5,-204 291.5,-204"/>
<text text-anchor="start" x="296.5" y="-226.8" font-family="Times,serif" font-size="14.00"> 339.10 </text>
<text text-anchor="start" x="295.5" y="-211.8" font-family="Times,serif" font-size="14.00"> (MB/s) </text>
<polygon fill="#ffffcb" stroke="none" points="347.5,-204 347.5,-242 387.5,-242 387.5,-204 347.5,-204"/>
<polygon fill="none" stroke="black" points="347.5,-204 347.5,-242 387.5,-242 387.5,-204 347.5,-204"/>
<text text-anchor="start" x="351.5" y="-226.8" font-family="Times,serif" font-size="14.00"> 0.05 </text>
<text text-anchor="start" x="352.5" y="-211.8" font-family="Times,serif" font-size="14.00"> (ms)</text>
</g>
<!-- fc1/Relu&#45;&gt;fc2/add -->
<g id="edge6" class="edge"><title>fc1/Relu&#45;&gt;fc2/add</title>
<path fill="none" stroke="black" d="M301.5,-327.867C301.5,-319.634 301.5,-310.957 301.5,-302.465"/>
<polygon fill="black" stroke="black" points="305,-302.241 301.5,-292.241 298,-302.241 305,-302.241"/>
</g>
<!-- output -->
<g id="node9" class="node"><title>output</title>
<polygon fill="#a3a3a3" stroke="none" points="215.5,-137 215.5,-160 387.5,-160 387.5,-137 215.5,-137"/>
<polygon fill="none" stroke="black" points="215.5,-137 215.5,-160 387.5,-160 387.5,-137 215.5,-137"/>
<text text-anchor="start" x="284" y="-144.8" font-family="Times,serif" font-size="14.00">output</text>
<polygon fill="#dddddd" stroke="none" points="215.5,-114 215.5,-137 387.5,-137 387.5,-114 215.5,-114"/>
<polygon fill="none" stroke="black" points="215.5,-114 215.5,-137 387.5,-137 387.5,-114 215.5,-114"/>
<text text-anchor="start" x="279" y="-121.8" font-family="Times,serif" font-size="14.00">(7, 1, 1)</text>
<polygon fill="#b1f1ef" stroke="none" points="215.5,-76 215.5,-114 291.5,-114 291.5,-76 215.5,-76"/>
<polygon fill="none" stroke="black" points="215.5,-76 215.5,-114 291.5,-114 291.5,-76 215.5,-76"/>
<text text-anchor="start" x="229" y="-98.8" font-family="Times,serif" font-size="14.00"> 2.1e&#45;05 </text>
<text text-anchor="start" x="219.5" y="-83.8" font-family="Times,serif" font-size="14.00"> (MFLOPs) </text>
<polygon fill="#ffe5fc" stroke="none" points="291.5,-76 291.5,-114 347.5,-114 347.5,-76 291.5,-76"/>
<polygon fill="none" stroke="black" points="291.5,-76 291.5,-114 347.5,-114 347.5,-76 291.5,-76"/>
<text text-anchor="start" x="303.5" y="-98.8" font-family="Times,serif" font-size="14.00"> 0.54 </text>
<text text-anchor="start" x="295.5" y="-83.8" font-family="Times,serif" font-size="14.00"> (MB/s) </text>
<polygon fill="#ffffcb" stroke="none" points="347.5,-76 347.5,-114 387.5,-114 387.5,-76 347.5,-76"/>
<polygon fill="none" stroke="black" points="347.5,-76 347.5,-114 387.5,-114 387.5,-76 347.5,-76"/>
<text text-anchor="start" x="351.5" y="-98.8" font-family="Times,serif" font-size="14.00"> 0.05 </text>
<text text-anchor="start" x="352.5" y="-83.8" font-family="Times,serif" font-size="14.00"> (ms)</text>
</g>
<!-- fc2/add&#45;&gt;output -->
<g id="edge7" class="edge"><title>fc2/add&#45;&gt;output</title>
<path fill="none" stroke="black" d="M301.5,-199.867C301.5,-191.634 301.5,-182.957 301.5,-174.465"/>
<polygon fill="black" stroke="black" points="305,-174.241 301.5,-164.241 298,-174.241 305,-174.241"/>
</g>
<!-- Output -->
<g id="node10" class="node"><title>Output</title>
<ellipse fill="none" stroke="black" cx="301.5" cy="-18" rx="66.8882" ry="18"/>
<text text-anchor="middle" x="301.5" y="-14.3" font-family="Times,serif" font-size="14.00">output: [1, 1, 7]</text>
</g>
<!-- output&#45;&gt;Output -->
<g id="edge8" class="edge"><title>output&#45;&gt;Output</title>
<path fill="none" stroke="black" d="M301.5,-71.7292C301.5,-63.0404 301.5,-54.1943 301.5,-46.2922"/>
<polygon fill="black" stroke="black" points="305,-46.2052 301.5,-36.2053 298,-46.2053 305,-46.2052"/>
</g>
<!-- Summary -->
<g id="node11" class="node"><title>Summary</title>
<polygon fill="#c60000" stroke="none" points="394.5,-1063.5 394.5,-1086.5 579.5,-1086.5 579.5,-1063.5 394.5,-1063.5"/>
<polygon fill="none" stroke="black" points="394.5,-1063.5 394.5,-1086.5 579.5,-1086.5 579.5,-1063.5 394.5,-1063.5"/>
<text text-anchor="start" x="459.5" y="-1071.3" font-family="Times,serif" font-size="14.00">Summary</text>
<polygon fill="#e2e2e2" stroke="none" points="394.5,-1040.5 394.5,-1063.5 579.5,-1063.5 579.5,-1040.5 394.5,-1040.5"/>
<polygon fill="none" stroke="black" points="394.5,-1040.5 394.5,-1063.5 579.5,-1063.5 579.5,-1040.5 394.5,-1040.5"/>
<text text-anchor="start" x="437" y="-1048.3" font-family="Times,serif" font-size="14.00">1 SHV Processors</text>
<polygon fill="#dadada" stroke="none" points="394.5,-1017.5 394.5,-1040.5 579.5,-1040.5 579.5,-1017.5 394.5,-1017.5"/>
<polygon fill="none" stroke="black" points="394.5,-1017.5 394.5,-1040.5 579.5,-1040.5 579.5,-1017.5 394.5,-1017.5"/>
<text text-anchor="start" x="419.5" y="-1025.3" font-family="Times,serif" font-size="14.00">Inference time 19.75 ms</text>
<polygon fill="#e2e2e2" stroke="none" points="394.5,-994.5 394.5,-1017.5 579.5,-1017.5 579.5,-994.5 394.5,-994.5"/>
<polygon fill="none" stroke="black" points="394.5,-994.5 394.5,-1017.5 579.5,-1017.5 579.5,-994.5 394.5,-994.5"/>
<text text-anchor="start" x="413" y="-1002.3" font-family="Times,serif" font-size="14.00">Bandwidth 978.97 MB/sec</text>
<polygon fill="#dadada" stroke="none" points="394.5,-971.5 394.5,-994.5 579.5,-994.5 579.5,-971.5 394.5,-971.5"/>
<polygon fill="none" stroke="black" points="394.5,-971.5 394.5,-994.5 579.5,-994.5 579.5,-971.5 394.5,-971.5"/>
<text text-anchor="start" x="398.5" y="-979.3" font-family="Times,serif" font-size="14.00">This network is Compute bound</text>
</g>
</g>
</svg>
